<?xml version="1.0" standalone="no"?>
<!DOCTYPE svg PUBLIC "-//W3C//DTD SVG 1.1//EN" "http://www.w3.org/Graphics/SVG/1.1/DTD/svg11.dtd" >
<svg xmlns="http://www.w3.org/2000/svg">
<metadata></metadata>
<defs>
<font id="UrbanoBold" horiz-adv-x="1277" >
<font-face units-per-em="2048" ascent="1638" descent="-410" />
<missing-glyph horiz-adv-x="512" />
<glyph unicode="&#xfb01;" horiz-adv-x="1257" d="M10 766v176h193v184q0 137 78 203q41 35 96.5 49.5t150.5 14.5q68 0 154 -2v-181h-55q-96 0 -131 -29t-35 -108v-131h217v-176h-217v-766h-258v766h-193zM872 0v942h258v-942h-258zM872 1157v209h258v-209h-258z" />
<glyph unicode="&#xfb02;" horiz-adv-x="1257" d="M10 766v176h193v184q0 137 78 203q41 35 96.5 49.5t150.5 14.5q68 0 154 -2v-181h-55q-96 0 -131 -29t-35 -108v-131h217v-176h-217v-766h-258v766h-193zM872 0v1366h258v-1366h-258z" />
<glyph horiz-adv-x="0" />
<glyph horiz-adv-x="2048" />
<glyph unicode=" "  horiz-adv-x="512" />
<glyph unicode="&#x09;" horiz-adv-x="512" />
<glyph unicode="&#xa0;" horiz-adv-x="512" />
<glyph unicode="!" horiz-adv-x="516" d="M137 0v244h234v-244h-234zM137 1366h244l-35 -993h-182z" />
<glyph unicode="&#x22;" horiz-adv-x="802" d="M92 1366h264l-49 -549h-168zM446 1366h265l-47 -549h-170z" />
<glyph unicode="#" horiz-adv-x="1228" d="M6 377l35 229h209l29 180h-207l34 230h207l56 350h258l-60 -350h189l55 350h262l-55 -350h205l-35 -230h-205l-29 -180h209l-35 -229h-208l-62 -377h-268l65 377h-184l-61 -377h-256l61 377h-209zM508 606h182l29 180h-182z" />
<glyph unicode="$" d="M76 436h286v-24q0 -110 60.5 -170.5t173.5 -63.5v391q-68 17 -108 28.5t-97.5 32t-91 39.5t-72.5 50t-59.5 66t-34.5 83.5t-14 106.5q0 107 54.5 197t154.5 145q61 34 118 50.5t150 25.5v139h102v-139q232 -11 355.5 -118t120.5 -296h-271q-12 204 -205 213v-379 q157 -43 242 -72q137 -46 200.5 -127t63.5 -208q0 -101 -50.5 -193.5t-135.5 -144.5q-67 -42 -136 -62.5t-184 -32.5v-139h-102v139l-6 -2h-8q-270 0 -389 113.5t-117 351.5zM406 1020q0 -138 190 -178v350q-85 -6 -137.5 -53.5t-52.5 -118.5zM698 178q93 6 155 62.5 t62 134.5q0 60 -41.5 95t-142.5 67l-33 10v-369z" />
<glyph unicode="%" horiz-adv-x="1820" d="M68 948q0 205 91.5 319.5t254.5 114.5q165 0 255.5 -113t90.5 -319q0 -194 -93 -307t-253 -113q-164 0 -255 110t-91 308zM250 946q0 -138 41 -209t121 -71q163 0 163 301q0 280 -161 280q-80 0 -122 -77t-42 -224zM440 0l777 1366h163l-774 -1366h-166zM1059 401 q0 205 91.5 320t254.5 115q165 0 255.5 -113.5t90.5 -319.5q0 -193 -93 -306t-253 -113q-164 0 -255 109.5t-91 307.5zM1241 399q0 -138 41 -209t121 -71q164 0 164 301q0 280 -162 280q-80 0 -122 -77t-42 -224z" />
<glyph unicode="&#x26;" horiz-adv-x="1529" d="M92 385q0 128 82.5 215.5t226.5 112.5q-121 35 -189.5 115t-68.5 186q0 158 128 255t335 97q123 0 287 -35v-201q-134 35 -238 35q-109 0 -173 -51.5t-64 -140.5q0 -66 39 -105q35 -34 86.5 -46.5t158.5 -12.5h261v262h270v-262h231v-201h-231v-608h-604q-221 0 -353 72 q-83 44 -133.5 130.5t-50.5 182.5zM367 418q0 -54 27.5 -102.5t74.5 -79.5q56 -35 152 -35h342v407h-287q-110 0 -166 -15t-94 -56q-49 -49 -49 -119z" />
<glyph unicode="'" horiz-adv-x="448" d="M92 1366h264l-49 -549h-168z" />
<glyph unicode="(" horiz-adv-x="641" d="M96 559q0 323 197 848h205q-80 -236 -124 -458t-44 -392q0 -125 20.5 -254.5t69.5 -316.5q47 -181 78 -262h-205q-108 287 -152.5 475.5t-44.5 359.5z" />
<glyph unicode=")" horiz-adv-x="641" d="M143 -276q35 91 84 276q86 323 86 557q0 172 -44.5 395t-125.5 455h205q199 -523 199 -848q0 -172 -45 -361.5t-154 -473.5h-205z" />
<glyph unicode="*" horiz-adv-x="1028" d="M135 1040l41 129l273 -88l-3 285h136v-285l272 88l41 -129l-272 -88l168 -229l-109 -80l-168 231l-168 -231l-108 80l168 229z" />
<glyph unicode="+" d="M113 598v205h417v409h215v-409h418v-205h-418v-412h-215v412h-417z" />
<glyph unicode="," horiz-adv-x="497" d="M31 -178l127 424h256l-199 -424h-184z" />
<glyph unicode="-" horiz-adv-x="512" d="M0 408v165h512v-165h-512z" />
<glyph unicode="." horiz-adv-x="497" d="M137 0v252h223v-252h-223z" />
<glyph unicode="/" horiz-adv-x="921" d="M6 -250l688 1616h213l-688 -1616h-213z" />
<glyph unicode="0" d="M92 670q0 343 144.5 534t402.5 191q261 0 404 -188.5t143 -532.5q0 -146 -35.5 -276t-101.5 -224q-66 -96 -173 -148.5t-237 -52.5q-259 0 -403 183.5t-144 513.5zM369 666q0 -239 68 -362.5t200 -123.5q152 0 211 146q61 143 61 374q0 488 -268 488q-134 0 -203 -133 t-69 -389z" />
<glyph unicode="1" d="M248 934v235q243 104 350 197h248v-1366h-275v1106q-50 -50 -147 -101.5t-176 -70.5z" />
<glyph unicode="2" d="M104 0v229q419 330 574.5 498t155.5 291q0 78 -58 128t-149 50q-98 0 -145 -50t-50 -155h-289q0 67 9.5 110t33.5 87q56 99 171 152t274 53q216 0 347.5 -102.5t131.5 -270.5q0 -124 -71 -239t-242 -273q-168 -151 -375 -299h739v-209h-1057z" />
<glyph unicode="3" d="M92 375h291q3 -68 32.5 -114.5t80.5 -68.5t122 -22q109 0 180.5 62.5t71.5 156.5q0 101 -78 156t-221 55q-21 0 -79 -4v221q14 -2 36 -2q157 0 233.5 49t76.5 150q0 82 -57.5 132t-149.5 50q-122 0 -182 -76q-30 -35 -35 -102h-285q3 118 53 190q62 89 173 137t257 48 q219 0 360.5 -104.5t141.5 -266.5q0 -114 -72.5 -200.5t-183.5 -106.5v-15q81 -10 141 -49q68 -45 108 -118.5t40 -157.5q0 -79 -39.5 -154.5t-110.5 -132.5q-69 -54 -178.5 -85.5t-230.5 -31.5q-139 0 -247 40.5t-171 115.5q-41 49 -58.5 106t-19.5 142z" />
<glyph unicode="4" d="M66 311v256l579 799h338v-846h242v-209h-242v-311h-274v311h-643zM309 520h410v615z" />
<glyph unicode="5" d="M154 356h284q7 -87 64.5 -136.5t150.5 -49.5q110 0 174 74t64 202q0 125 -60 195t-167 70q-88 0 -143 -43t-70 -125h-273l33 823h868v-209h-626l-17 -399q61 78 136 113.5t176 35.5q186 0 302.5 -120t116.5 -312q0 -221 -149 -361.5t-383 -140.5q-138 0 -254.5 53.5 t-177.5 145.5q-46 67 -49 184z" />
<glyph unicode="6" d="M137 616q0 150 32 302.5t79 230.5q143 244 465 244q121 0 214.5 -39t149.5 -111q33 -43 48 -90t16 -115h-273q-9 72 -56.5 110t-129.5 38q-96 0 -153.5 -60.5t-86.5 -193.5q-22 -99 -22 -223q67 103 147 148.5t193 45.5q178 0 292.5 -125t114.5 -317q0 -216 -144.5 -352 t-373.5 -136q-261 0 -391 168q-64 83 -92.5 194.5t-28.5 280.5zM451 428q0 -118 57 -188t154 -70q100 0 164.5 75.5t64.5 192.5t-58 187.5t-153 70.5q-103 0 -166 -73.5t-63 -194.5z" />
<glyph unicode="7" d="M143 1157v209h975v-188l-485 -1178h-314l512 1157h-688z" />
<glyph unicode="8" d="M106 371q0 126 83.5 221t222.5 129v10q-68 13 -107.5 29.5t-73.5 44.5q-106 89 -106 227q0 158 145.5 259.5t372.5 101.5q221 0 363.5 -102t142.5 -259q0 -110 -71.5 -189.5t-200.5 -111.5v-10q102 -35 159 -82q64 -51 99.5 -121t35.5 -147q0 -172 -152 -285t-382 -113 q-232 0 -381.5 112.5t-149.5 285.5zM383 385q0 -97 70.5 -156t185.5 -59q117 0 186.5 58.5t69.5 156.5q0 101 -70 164t-184 63q-115 0 -186.5 -63t-71.5 -164zM401 1012q0 -85 66 -138t172 -53q107 0 170 48.5t63 131.5q0 88 -64.5 141.5t-170.5 53.5t-171 -50.5t-65 -133.5 z" />
<glyph unicode="9" d="M100 936q0 201 144 329t370 128q124 0 229 -44t171 -124q137 -162 137 -527q0 -311 -94 -489q-63 -115 -189 -176.5t-299 -61.5q-131 0 -235 38t-160 104q-55 70 -61 217h295q6 -82 52 -122t136 -40q146 0 210 117.5t64 382.5q-83 -91 -155.5 -126.5t-175.5 -35.5 q-190 0 -314.5 122t-124.5 308zM377 946q0 -103 64 -168t165 -65q103 0 168.5 65t65.5 168q0 109 -61.5 174.5t-164.5 65.5q-107 0 -172 -66t-65 -174z" />
<glyph unicode=":" horiz-adv-x="497" d="M137 0v252h223v-252h-223zM137 690v252h223v-252h-223z" />
<glyph unicode=";" horiz-adv-x="497" d="M31 -178l127 424h256l-199 -424h-184zM188 690v252h224v-252h-224z" />
<glyph unicode="&#x3c;" horiz-adv-x="1024" d="M68 590v215l886 448v-254l-616 -303l616 -305v-252z" />
<glyph unicode="=" d="M113 426v197h1050v-197h-1050zM113 780v197h1050v-197h-1050z" />
<glyph unicode="&#x3e;" horiz-adv-x="1024" d="M68 139v252l616 305l-616 303v252l886 -448v-215z" />
<glyph unicode="?" horiz-adv-x="886" d="M68 1157v203q141 35 264 35q227 0 358 -98t131 -267q0 -72 -25.5 -134t-82.5 -128q-34 -41 -164 -156q-67 -60 -91 -106t-24 -115v-43h-203v29q0 125 19.5 177t95.5 134q126 136 163.5 197t37.5 131q0 89 -69 142.5t-183 53.5t-227 -55zM223 0v225h219v-225h-219z" />
<glyph unicode="@" horiz-adv-x="1501" d="M63 498q0 200 96 366.5t262.5 262.5t366.5 96q139 0 260 -46.5t207 -126.5t135.5 -193.5t49.5 -242.5q0 -124 -47 -234.5t-125.5 -176.5t-165.5 -66q-59 0 -103 31.5t-57 83.5q-41 -61 -110 -96t-146 -35q-125 0 -208 93t-83 232q0 108 49.5 203t133 152t178.5 57 q64 0 118.5 -28t83.5 -76l17 82h176l-76 -396q-14 -71 -14 -90q0 -31 13 -49t36 -18q42 0 82.5 48t66 125.5t25.5 157.5q0 198 -136 323.5t-351 125.5q-116 0 -220 -44t-179 -119.5t-118.5 -180.5t-43.5 -223q0 -110 40.5 -213.5t112.5 -178.5q144 -147 406 -147 q206 0 383 63l39 -161q-189 -64 -420 -64q-320 0 -516 187q-103 97 -160.5 233.5t-57.5 282.5zM596 451q0 -66 38 -108t99 -42q72 0 126 65.5t54 151.5q0 66 -37 108t-96 42q-74 0 -129 -64.5t-55 -152.5z" />
<glyph unicode="A" horiz-adv-x="1398" d="M0 0l528 1366h355l516 -1366h-293l-113 299h-604l-106 -299h-283zM469 514h453l-230 649z" />
<glyph unicode="B" horiz-adv-x="1300" d="M143 0v1366h514q127 0 208 -19t149 -63q68 -46 105.5 -116t37.5 -152q0 -107 -68.5 -187t-189.5 -114q145 -25 227 -113t82 -217q0 -96 -50.5 -182.5t-133.5 -130.5q-132 -72 -352 -72h-529zM410 207h270q139 0 209 82q45 54 45 123q0 52 -27 96.5t-73 69.5 q-51 28 -156 28h-268v-399zM410 813h243q80 0 119 11.5t70 45.5q41 41 41 107q0 68 -45 119q-57 63 -187 63h-241v-346z" />
<glyph unicode="C" horiz-adv-x="1368" d="M92 664q0 168 47 311t133 237q79 88 198.5 134.5t264.5 46.5q171 0 303 -61t201 -171q54 -87 59 -219h-292q-6 115 -76.5 181.5t-186.5 66.5q-177 0 -269.5 -134.5t-92.5 -389.5q0 -235 89 -362.5t255 -127.5q121 0 194.5 65.5t90.5 188.5h303q-19 -209 -176 -333 t-404 -124q-299 0 -470 184t-171 507z" />
<glyph unicode="D" horiz-adv-x="1445" d="M143 0v1366h504q284 0 467 -129q238 -170 238 -557q0 -181 -58.5 -322t-165.5 -221q-179 -137 -536 -137h-449zM422 207h153q254 0 371 114t117 363q0 475 -461 475h-180v-952z" />
<glyph unicode="E" horiz-adv-x="1148" d="M143 0v1366h901v-207h-634v-348h596v-207h-596v-397h661v-207h-928z" />
<glyph unicode="F" horiz-adv-x="1095" d="M143 0v1366h885v-207h-618v-352h579v-207h-579v-600h-267z" />
<glyph unicode="G" horiz-adv-x="1462" d="M92 668q0 338 185 532.5t507 194.5q225 0 370.5 -91.5t176.5 -252.5q10 -46 10 -109h-294q-14 100 -43 150q-29 47 -89.5 73.5t-138.5 26.5q-187 0 -291 -134t-104 -376q0 -248 108.5 -377t317.5 -129q104 0 244 31v311h-293v207h571v-676q-163 -41 -281 -58.5 t-239 -17.5q-352 0 -534.5 177t-182.5 518z" />
<glyph unicode="H" horiz-adv-x="1449" d="M143 0v1366h279v-547h606v547h279v-1366h-279v604h-606v-604h-279z" />
<glyph unicode="I" horiz-adv-x="565" d="M143 0v1366h279v-1366h-279z" />
<glyph unicode="J" horiz-adv-x="1081" d="M0 397q0 15 2 27h281v-33q0 -103 48.5 -159t139.5 -56q100 0 144 62t44 200v928h279v-920q0 -117 -19 -186.5t-67 -130.5q-126 -156 -401 -156q-227 0 -339 105t-112 319z" />
<glyph unicode="K" horiz-adv-x="1339" d="M143 0v1366h279v-1366h-279zM442 748l476 618h325l-498 -606l594 -760h-362z" />
<glyph unicode="L" horiz-adv-x="1040" d="M143 0v1366h279v-1159h618v-207h-897z" />
<glyph unicode="M" horiz-adv-x="1863" d="M143 0v1366h457l250 -745q33 -101 84 -248q10 30 342 993h444v-1366h-278v956q0 40 8 222l-403 -1178h-271l-391 1163q8 -172 8 -207v-956h-250z" />
<glyph unicode="N" horiz-adv-x="1462" d="M143 0v1366h398l372 -752q49 -99 142 -338q-15 193 -15 273v817h279v-1366h-397l-410 819q-106 235 -125 281l2 -72q1 -14 2 -31.5t1.5 -27t0.5 -13.5v-956h-250z" />
<glyph unicode="O" horiz-adv-x="1507" d="M92 694q0 326 179.5 512.5t492.5 186.5q306 0 477.5 -189.5t171.5 -529.5q0 -312 -158 -496q-87 -97 -218 -151t-285 -54q-312 0 -486 190.5t-174 530.5zM381 694q0 -246 96 -389q85 -129 283 -129q180 0 272 128t92 376q0 251 -92 380.5t-272 129.5 q-178 0 -278.5 -131.5t-100.5 -364.5z" />
<glyph unicode="P" horiz-adv-x="1232" d="M143 0v1366h533q135 0 224.5 -27t156.5 -86q125 -116 125 -295q0 -98 -38.5 -182t-109.5 -141q-121 -98 -352 -98h-272v-537h-267zM410 743h196q144 0 205 45q82 56 82 168q0 91 -51 142q-32 33 -80.5 47t-130.5 14h-221v-416z" />
<glyph unicode="Q" horiz-adv-x="1492" d="M92 664q0 335 182 532t492 197q292 0 465.5 -183t173.5 -491q0 -125 -32 -237t-89 -185q-22 -30 -51 -57t-88 -72q144 41 311 41q39 0 72 -4v-205q-74 4 -172 4q-175 0 -254 -3.5t-232 -18.5q-108 -11 -131 -11q-110 0 -215 32.5t-184 90.5q-120 86 -184 234t-64 336z M381 686q0 -132 35 -245t96 -177q90 -90 238 -90q175 0 270.5 135.5t95.5 382.5t-90 372.5t-268 125.5q-177 0 -277 -134t-100 -370z" />
<glyph unicode="R" horiz-adv-x="1335" d="M143 0v1366h582q136 0 217.5 -21.5t144.5 -74.5q117 -97 117 -258q0 -70 -26 -133.5t-72 -106.5q-33 -33 -72.5 -52t-111.5 -38q121 -19 173.5 -81.5t69.5 -207.5l19 -157q15 -126 23 -158t36 -78h-295q-26 50 -43 215l-18 164q-8 64 -16 88.5t-29 44.5q-54 51 -162 51 h-258v-563h-279zM422 770h235q258 0 258 203q0 55 -24.5 98.5t-67.5 65.5t-155 22h-246v-389z" />
<glyph unicode="S" horiz-adv-x="1314" d="M92 387q0 33 2 51h285v-26q0 -116 71 -176t209 -60q122 0 199.5 57t77.5 146q0 64 -47 103.5t-150 62.5q-194 42 -265 62.5t-136 51.5q-106 53 -156.5 127.5t-50.5 180.5q0 193 152.5 309.5t404.5 116.5q315 0 445 -187q30 -45 42.5 -94.5t14.5 -122.5h-275 q-3 104 -61 152.5t-180 48.5q-117 0 -185.5 -48t-68.5 -130q0 -31 12.5 -59.5t32.5 -43.5q38 -30 86.5 -47t232.5 -63q254 -65 346.5 -146.5t92.5 -242.5q0 -196 -163 -316.5t-429 -120.5q-258 0 -398.5 108t-140.5 306z" />
<glyph unicode="T" horiz-adv-x="1175" d="M0 1159v207h1176v-207h-449v-1159h-278v1159h-449z" />
<glyph unicode="U" horiz-adv-x="1439" d="M143 502v864h279v-864q0 -154 77.5 -240t215.5 -86q141 0 222 87t81 239v864h278v-864q0 -239 -159 -384t-422 -145q-141 0 -265 49t-198 134q-109 124 -109 346z" />
<glyph unicode="V" horiz-adv-x="1327" d="M-6 1366h307l375 -1047l381 1047h278l-528 -1366h-291z" />
<glyph unicode="W" horiz-adv-x="2062" d="M0 1366h297l278 -969l310 969h329l318 -969l264 969h266l-397 -1366h-291l-334 1028l-329 -1028h-301z" />
<glyph unicode="X" horiz-adv-x="1366" d="M0 0l510 715l-467 651h354l303 -430l314 430h311l-465 -651l506 -715h-344l-348 504l-357 -504h-317z" />
<glyph unicode="Y" horiz-adv-x="1298" d="M0 1366h328l338 -578l335 578h295l-510 -844v-522h-278v522z" />
<glyph unicode="Z" horiz-adv-x="1196" d="M80 0v254l704 905h-667v207h987v-236l-711 -923h737v-207h-1050z" />
<glyph unicode="[" horiz-adv-x="649" d="M137 -276v1683h404v-137h-193v-1407h193v-139h-404z" />
<glyph unicode="\" horiz-adv-x="921" d="M14 1366h213l688 -1616h-210z" />
<glyph unicode="]" horiz-adv-x="649" d="M109 -137h192v1407h-192v137h403v-1683h-403v139z" />
<glyph unicode="^" horiz-adv-x="1024" d="M12 690l332 684h336l330 -684h-267l-231 479l-231 -479h-269z" />
<glyph unicode="_" horiz-adv-x="1024" d="M0 -98h1024v-230h-1024v230z" />
<glyph unicode="`" horiz-adv-x="1024" d="M178 1366h279l186 -301h-197z" />
<glyph unicode="a" horiz-adv-x="1101" d="M84 262q0 78 36.5 146t102.5 112t165 60t337 22v37q0 100 -43 143t-141 43q-80 0 -119 -35t-45 -114h-250q5 97 41 151q89 142 373 142q223 0 336 -88q54 -43 77 -99t23 -143v-367q0 -116 4 -169t16 -103h-237q-19 74 -19 133q-73 -89 -145 -124.5t-178 -35.5 q-149 0 -241.5 80t-92.5 209zM344 283q0 -67 41.5 -104.5t116.5 -37.5q70 0 122.5 31t80.5 88q4 9 13 72.5t9 85.5q0 21 -2 39q-224 0 -291 -31q-90 -41 -90 -143z" />
<glyph unicode="b" horiz-adv-x="1161" d="M113 0q14 57 14 205v1161h258v-530q52 73 115 103t164 30q190 0 288 -107q61 -66 94 -169.5t33 -229.5q0 -228 -105.5 -359t-289.5 -131q-211 0 -295 179q-2 -83 -14 -152h-262zM381 492q0 -170 56 -257.5t165 -87.5q213 0 213 316q0 167 -57 254.5t-164 87.5 q-104 0 -158.5 -79.5t-54.5 -233.5z" />
<glyph unicode="c" horiz-adv-x="1048" d="M84 467q0 234 126.5 368t356.5 134q120 0 212.5 -37.5t146.5 -108.5q32 -41 46 -85t17 -113h-256q-7 97 -49 140.5t-127 43.5q-109 0 -159 -77t-50 -243q0 -356 215 -356q84 0 128 54t46 159h252v-20q0 -155 -121 -254t-311 -99q-103 0 -193.5 33.5t-152.5 93.5 q-60 59 -93.5 155.5t-33.5 211.5z" />
<glyph unicode="d" horiz-adv-x="1165" d="M84 483q0 218 110.5 352t290.5 134q100 0 170.5 -37t124.5 -119v553h258v-1366h-258v125q-62 -80 -128.5 -116t-155.5 -36q-180 0 -296 143.5t-116 366.5zM348 487q0 -164 55 -253t158 -89q107 0 166 83t59 235q0 169 -65 248q-70 86 -164 86q-97 0 -153 -83.5 t-56 -226.5z" />
<glyph unicode="e" horiz-adv-x="1118" d="M84 461q0 232 129.5 370t347.5 138q230 0 350.5 -128t120.5 -372v-49h-686q0 -287 217 -287q55 0 103 25t71 65q17 33 27 86h248q-3 -81 -43 -149q-117 -187 -404 -187q-224 0 -342 115q-139 133 -139 373zM354 578h406q0 112 -49.5 171.5t-143.5 59.5 q-92 0 -146.5 -58.5t-66.5 -172.5z" />
<glyph unicode="f" horiz-adv-x="686" d="M10 766v176h193v184q0 137 78 203q41 35 96.5 49.5t150.5 14.5q68 0 154 -2v-181h-55q-96 0 -131 -29t-35 -108v-131h217v-176h-217v-766h-258v766h-193z" />
<glyph unicode="g" horiz-adv-x="1155" d="M84 481q0 220 112 354t296 134q97 0 162 -36t118 -118v127h258v-799q0 -154 -15.5 -226.5t-60.5 -133.5q-59 -77 -172 -121.5t-252 -44.5q-124 0 -219.5 35t-142.5 98q-24 33 -33.5 68.5t-9.5 91.5v14h254q9 -76 49.5 -111.5t118.5 -35.5q69 0 120 29t76 83q34 69 31 211 l-2 86q-51 -88 -124 -129t-179 -41q-175 0 -280 126.5t-105 338.5zM348 483q0 -295 201 -295q112 0 170.5 80t58.5 234q0 142 -55 218.5t-158 76.5q-106 0 -161.5 -81t-55.5 -233z" />
<glyph unicode="h" horiz-adv-x="1173" d="M125 0v1366h258v-565q98 170 305 170q105 0 185.5 -40t121.5 -112q52 -89 52 -237v-582h-259v559q0 111 -32 162q-22 37 -63.5 57.5t-94.5 20.5q-62 0 -111 -30t-71 -81q-33 -70 -33 -203v-485h-258z" />
<glyph unicode="i" horiz-adv-x="509" d="M125 0v942h258v-942h-258zM125 1157v209h258v-209h-258z" />
<glyph unicode="j" horiz-adv-x="534" d="M-57 -203h49q91 0 125.5 34.5t34.5 125.5v985h258v-977q0 -190 -66.5 -268t-228.5 -78q-77 0 -172 10v168zM152 1157v209h258v-209h-258z" />
<glyph unicode="k" horiz-adv-x="1099" d="M125 0v1366h258v-809l346 385h311l-374 -393l434 -549h-336l-381 524v-524h-258z" />
<glyph unicode="l" horiz-adv-x="509" d="M125 0v1366h258v-1366h-258z" />
<glyph unicode="m" horiz-adv-x="1779" d="M117 942h256q6 -77 6 -96l2 -60l25 41q38 63 120.5 103.5t175.5 40.5q180 0 289 -160l13 -18q21 32 24 38q44 63 123 100.5t168 37.5q86 0 157.5 -33.5t114.5 -93.5q64 -91 64 -252v-590h-258v561q0 75 -10.5 115.5t-36.5 66.5q-51 54 -129 54q-54 0 -97.5 -23.5 t-68.5 -66.5q-37 -62 -37 -205v-502h-258v598q0 93 -45.5 147t-130.5 54q-103 0 -162 -84q-41 -61 -41 -180v-535h-258v805q0 73 -6 137z" />
<glyph unicode="n" horiz-adv-x="1177" d="M117 942h262q3 -61 6 -149q43 65 80 94q101 82 258 82t243.5 -85t86.5 -239v-645h-258v563q0 68 -6 101t-25 59q-25 34 -67 54t-91 20q-104 0 -162.5 -66.5t-58.5 -185.5v-545h-258v764q0 114 -10 178z" />
<glyph unicode="o" horiz-adv-x="1157" d="M84 473q0 224 138.5 360t367.5 136q218 0 349.5 -140.5t131.5 -373.5q0 -98 -34 -189t-93 -153q-65 -66 -164.5 -103t-216.5 -37q-218 0 -348.5 135.5t-130.5 364.5zM348 483q0 -161 61.5 -249.5t174.5 -88.5q107 0 165 80.5t58 229.5q0 342 -229 342q-110 0 -170 -81.5 t-60 -232.5z" />
<glyph unicode="p" horiz-adv-x="1167" d="M119 942h258q3 -50 6 -127q57 82 126 118t167 36q186 0 295.5 -130t109.5 -350q0 -230 -116 -373t-303 -143q-84 0 -150 29.5t-129 95.5v-452h-258v1132q0 35 -6 164zM371 467q0 -155 55.5 -238.5t159.5 -83.5q106 0 168.5 88.5t62.5 239.5q0 155 -56 239.5t-157 84.5 q-112 0 -172.5 -85.5t-60.5 -244.5z" />
<glyph unicode="q" horiz-adv-x="1165" d="M84 459q0 224 115 368t295 144q92 0 157 -34t131 -116q0 66 2 121h256v-1296h-258v479q-60 -80 -131.5 -116t-169.5 -36q-180 0 -288.5 133.5t-108.5 352.5zM348 467q0 -322 209 -322q114 0 174 90t60 259q0 148 -56 226.5t-160 78.5q-107 0 -167 -87.5t-60 -244.5z" />
<glyph unicode="r" horiz-adv-x="749" d="M113 942h258q7 -52 10 -160q29 56 55 86t62 47q33 16 100.5 28.5t110.5 12.5h6v-215q-40 4 -58 4q-127 0 -200 -73q-39 -39 -55.5 -92.5t-16.5 -141.5v-438h-258v670q0 135 -14 272z" />
<glyph unicode="s" horiz-adv-x="1019" d="M84 262v31h254q6 -85 47.5 -122.5t130.5 -37.5q83 0 132.5 35t49.5 94q0 38 -19 60.5t-67 41t-151 42.5q-136 31 -190 51.5t-93 56.5q-80 71 -80 170q0 127 121 206t316 79q107 0 188.5 -25.5t124.5 -71.5q30 -32 44 -75t17 -111h-245q-6 67 -41 95t-115 28 q-72 0 -116 -28t-44 -74t42 -69t190 -58q144 -36 201 -60t102 -69q65 -62 65 -168q0 -103 -62.5 -174.5t-160.5 -103.5t-223 -32q-201 0 -309.5 75t-108.5 214z" />
<glyph unicode="t" horiz-adv-x="753" d="M18 766v176h211v150l250 129v-279h240v-176h-240v-457q0 -84 34 -122t105 -35q43 3 103 12v-164q-145 -29 -221 -29q-129 0 -201 66q-37 36 -53.5 93t-16.5 153v483h-211z" />
<glyph unicode="u" horiz-adv-x="1161" d="M125 373v569h258v-577q0 -99 35 -148q53 -72 151 -72q59 0 107.5 29t73.5 78q26 51 26 194v496h258v-758q0 -104 21 -184h-258q-21 90 -21 158q-78 -185 -307 -185q-167 0 -255.5 103t-88.5 297z" />
<glyph unicode="v" horiz-adv-x="1060" d="M10 942h279l254 -727l262 727h246l-365 -942h-321z" />
<glyph unicode="w" horiz-adv-x="1734" d="M10 942h281l219 -647l233 647h287l225 -647l224 647h245l-338 -942h-288l-232 676l-229 -676h-293z" />
<glyph unicode="x" horiz-adv-x="1101" d="M10 0l375 508l-319 434h315l192 -258l187 258h272l-317 -434l377 -508h-326l-240 334l-239 -334h-277z" />
<glyph unicode="y" horiz-adv-x="1050" d="M10 942h287l256 -637l233 637h252q-202 -488 -282.5 -689t-235.5 -607h-250l156 354z" />
<glyph unicode="z" horiz-adv-x="923" d="M66 0v209l485 559h-467v176h772v-196l-485 -572h508v-176h-813z" />
<glyph unicode="{" horiz-adv-x="649" d="M41 510v127q60 14 87.5 53.5t27.5 114.5v313q0 152 73 220.5t234 68.5q26 0 51 -2q30 0 53 -2v-137q-10 2 -24 2q-99 0 -133 -27q-22 -17 -29.5 -45t-7.5 -88v-293q0 -101 -25.5 -153.5t-95.5 -96.5q69 -41 95 -95.5t26 -154.5v-288q0 -36 2 -58.5t9 -41.5t17.5 -28.5 t31 -17t45 -10t63.5 -4.5q14 0 26 -2v-135q-25 -2 -53 -2h-49q-164 0 -236.5 69.5t-72.5 227.5v301q0 86 -26 127.5t-89 56.5z" />
<glyph unicode="|" horiz-adv-x="1024" d="M383 -342v1708h256v-1708h-256z" />
<glyph unicode="}" horiz-adv-x="649" d="M82 -135q12 2 27 2q47 2 74 6.5t47.5 13t29.5 28t12.5 44.5t3.5 68v288q0 100 26 154.5t95 95.5q-70 44 -95.5 96.5t-25.5 153.5v293q0 100 -32.5 130t-139.5 30q-12 0 -22 -2v137q23 2 53 2q25 2 51 2q162 0 235 -68.5t73 -220.5v-313q0 -75 27 -114.5t87 -53.5v-127 q-63 -15 -88.5 -56.5t-25.5 -127.5v-301q0 -158 -73 -227.5t-237 -69.5h-49q-28 0 -53 2v135z" />
<glyph unicode="~" horiz-adv-x="1366" d="M184 1243q8 22 17 35q60 138 124.5 192t168.5 54q64 0 213 -54q89 -33 118.5 -41t59.5 -8q51 0 81.5 22t67.5 85l146 -84q-42 -91 -73.5 -135.5t-74.5 -75.5q-80 -59 -176 -59q-51 0 -205 55q-88 33 -117.5 41t-56.5 8q-51 0 -82 -26t-69 -101z" />
<glyph unicode="&#xa1;" horiz-adv-x="516" d="M137 -354l33 991h184l27 -991h-244zM147 766v244h234v-244h-234z" />
<glyph unicode="&#xa2;" d="M182 676q0 354 252 465q67 28 168 41v192h103v-192q180 -10 282.5 -109.5t104.5 -263.5h-258q0 189 -129 207v-670q114 9 129 180h258q-9 -159 -104 -243t-283 -99v-192h-103v192q-207 23 -313.5 148.5t-106.5 343.5zM446 664q0 -152 35.5 -224t120.5 -94v670 q-156 -44 -156 -352z" />
<glyph unicode="&#xa3;" d="M145 662v169h160v72q0 93 16 174t44 125q57 94 169.5 142.5t270.5 48.5q412 0 412 -361v-14h-261q-4 88 -49 133t-127 45q-60 0 -103.5 -29t-62.5 -82q-16 -44 -16 -186v-68h240v-169h-240v-453h569v-209h-993v209h131v453h-160z" />
<glyph unicode="&#xa4;" horiz-adv-x="1366" d="M45 1264l139 141l211 -213q73 49 141 70.5t148 21.5q145 0 281 -88l211 207l137 -139l-207 -207q51 -79 72.5 -145.5t21.5 -141.5q0 -141 -90 -281l209 -208l-137 -140l-209 209q-140 -94 -291 -94q-75 0 -142.5 21.5t-146.5 70.5l-209 -207l-137 140l209 208 q-90 130 -90 281q0 152 92 283zM399 770q0 -117 83.5 -201t199.5 -84q118 0 201.5 84t83.5 201t-83 201t-198 84q-120 0 -203.5 -82.5t-83.5 -202.5z" />
<glyph unicode="&#xa5;" d="M88 1366h326l243 -565l240 565h293l-201 -412h168v-170h-252l-67 -137h319v-170h-381v-477h-274v477h-381v170h319l-67 137h-252v170h168z" />
<glyph unicode="&#xa6;" horiz-adv-x="1024" d="M383 313h256v-655h-256v655zM383 657v709h256v-709h-256z" />
<glyph unicode="&#xa7;" horiz-adv-x="1136" d="M137 596q0 75 36 127t146 137q-133 110 -133 246q0 130 114 209.5t300 79.5q172 0 350 -76l-26 -207q-87 35 -181 55.5t-165 20.5q-57 0 -94.5 -23.5t-37.5 -60.5q0 -32 23 -58.5t90 -72.5l213 -150q130 -92 179.5 -156.5t49.5 -146.5q0 -78 -43.5 -140.5t-136.5 -117.5 q79 -75 108 -128.5t29 -125.5q0 -131 -116.5 -216t-296.5 -85q-77 0 -155 17t-208 63l27 211q156 -53 218 -67.5t132 -14.5q63 0 101 25.5t38 68.5q0 36 -26.5 63.5t-130.5 100.5l-219 154q-110 77 -147.5 130.5t-37.5 137.5zM389 643q0 -35 15 -60.5t55 -62.5 q72 -56 73 -57l146 -103q63 60 63 127q0 47 -34 93q-23 29 -36.5 41t-66.5 49l-151 104q-36 -40 -50 -69t-14 -62z" />
<glyph unicode="&#xa8;" horiz-adv-x="1024" d="M219 1112v205h225v-205h-225zM580 1112v205h225v-205h-225z" />
<glyph unicode="&#xa9;" horiz-adv-x="1605" d="M92 688q0 192 96.5 354.5t262.5 256.5t362 94q140 0 269.5 -57t223 -152.5t149.5 -226.5t56 -273q0 -193 -95 -357t-258 -259t-355 -95q-194 0 -358 95.5t-258.5 260t-94.5 359.5zM209 688q0 -122 47 -233t126 -191t189 -127t232 -47q160 0 296.5 79.5t216 216.5 t79.5 298q0 158 -79.5 295t-214 217t-290.5 80q-270 0 -449 -197q-72 -80 -112.5 -183t-40.5 -208zM422 672q0 195 102.5 305t282.5 110q103 0 182.5 -35t120.5 -98q32 -50 35 -135h-187q-3 66 -41.5 102.5t-105.5 36.5q-100 0 -152.5 -73t-52.5 -211q0 -129 50.5 -197.5 t144.5 -68.5q142 0 160 143h194q-11 -126 -104.5 -199t-245.5 -73q-178 0 -280.5 105t-102.5 288z" />
<glyph unicode="&#xaa;" horiz-adv-x="833" d="M106 559v109h619v-109h-619zM121 946q0 83 56 136.5t159 70.5q49 7 196 10v29q0 94 -110 94q-50 0 -71.5 -20.5t-24.5 -71.5h-176q5 104 69.5 151.5t202.5 47.5q287 0 287 -213v-404h-164l-2 70q-74 -86 -201 -86q-98 0 -159.5 51.5t-61.5 134.5zM307 961 q0 -37 23.5 -57.5t66.5 -20.5q135 0 135 151v25q-131 0 -178 -20.5t-47 -77.5z" />
<glyph unicode="&#xab;" horiz-adv-x="1071" d="M82 477l272 465h221l-233 -471l238 -471h-226zM492 477l272 465h221l-233 -471l237 -471h-225z" />
<glyph unicode="&#xac;" horiz-adv-x="1024" d="M68 307v240h886v-547h-256v307h-630z" />
<glyph unicode="&#xad;" horiz-adv-x="512" d="M0 408v165h512v-165h-512z" />
<glyph unicode="&#xae;" horiz-adv-x="1605" d="M92 688q0 192 96.5 354.5t262.5 256.5t362 94q140 0 269.5 -57t223 -152.5t149.5 -226.5t56 -273q0 -193 -95 -357t-258 -259t-355 -95q-194 0 -358 95.5t-258.5 260t-94.5 359.5zM209 688q0 -122 47 -233t126 -191t189 -127t232 -47q160 0 296.5 79.5t216 216.5 t79.5 298q0 158 -79.5 295t-214 217t-290.5 80q-270 0 -449 -197q-72 -80 -112.5 -183t-40.5 -208zM489 293v780h351q82 0 130.5 -12t86.5 -43q71 -58 71 -150q0 -41 -16.5 -80.5t-44.5 -62.5q-27 -19 -76 -41q59 -22 81 -52.5t32 -109.5l12 -88l4 -37q4 -41 10.5 -57.5 t26.5 -46.5h-192q-18 29 -29 127l-10 92q-6 56 -30 76t-83 20h-143v-315h-181zM670 739h129q145 0 145 105q0 52 -32.5 75t-106.5 23h-135v-203z" />
<glyph unicode="&#xaf;" horiz-adv-x="1024" d="M203 1130v168h616v-168h-616z" />
<glyph unicode="&#xb0;" horiz-adv-x="681" d="M68 1122q0 113 80.5 192t197.5 79q109 0 188.5 -81.5t79.5 -191.5q0 -114 -79.5 -194t-192.5 -80q-114 0 -194 80.5t-80 195.5zM190 1120q0 -63 44.5 -107t107.5 -44q62 0 106 44t44 107q0 60 -44 105t-104 45q-65 0 -109.5 -43.5t-44.5 -106.5z" />
<glyph unicode="&#xb1;" d="M113 0v205h1050v-205h-1050zM113 737v205h417v410h215v-410h418v-205h-418v-413h-215v413h-417z" />
<glyph unicode="&#xb2;" horiz-adv-x="833" d="M76 547v147q251 187 350.5 288.5t99.5 170.5q0 43 -33 69.5t-87 26.5q-59 0 -85 -28.5t-26 -92.5h-195q-2 123 78 188.5t232 65.5q136 0 220.5 -63t84.5 -164t-92.5 -207t-315.5 -262h441v-139h-672z" />
<glyph unicode="&#xb3;" horiz-adv-x="833" d="M70 778v4h196q4 -63 37.5 -91.5t102.5 -28.5q63 0 105 34t42 86q0 58 -46.5 89t-131.5 28l-58 -2v145h31q184 0 184 109q0 43 -33 70.5t-87 27.5q-121 0 -127 -104h-193q0 79 35 125q80 112 274 112q139 0 229.5 -64.5t90.5 -164.5q0 -60 -31.5 -100.5t-111.5 -81.5 q74 -17 118.5 -71t44.5 -126q0 -108 -100 -177t-256 -69q-101 0 -176 32t-109 89q-14 24 -23.5 64.5t-6.5 64.5z" />
<glyph unicode="&#xb4;" horiz-adv-x="1024" d="M379 1065l186 301h279l-269 -301h-196z" />
<glyph unicode="&#xb5;" horiz-adv-x="1024" d="M55 -354v1337h256v-522q0 -97 14 -147t52 -87q57 -57 139 -57q86 0 143 70q31 40 42.5 89t11.5 140v514h256v-983h-256v119q-37 -72 -85.5 -105.5t-117.5 -33.5q-126 0 -199 126v-460h-256z" />
<glyph unicode="&#xb6;" horiz-adv-x="1349" d="M55 1006q0 102 44.5 182.5t125.5 122.5q104 55 301 55h674v-197h-147v-1429h-217v1429h-172v-1429h-218v917q-12 -2 -26 -2q-161 0 -263 98t-102 253z" />
<glyph unicode="&#xb7;" horiz-adv-x="497" d="M137 362v252h223v-252h-223z" />
<glyph unicode="&#xb8;" horiz-adv-x="1024" d="M340 -385l147 270h199l-115 -270h-231z" />
<glyph unicode="&#xb9;" horiz-adv-x="833" d="M166 1094v153q156 64 223 119h164v-819h-186v641q-31 -28 -94 -57t-107 -37z" />
<glyph unicode="&#xba;" horiz-adv-x="833" d="M92 1077q0 141 91.5 228.5t240.5 87.5q145 0 231 -89.5t86 -238.5q0 -138 -90.5 -221.5t-242.5 -83.5q-143 0 -229.5 86.5t-86.5 230.5zM106 559v109h619v-109h-619zM279 1083q0 -95 37 -147.5t104 -52.5q66 0 100.5 47.5t34.5 138.5q0 201 -137 201q-67 0 -103 -48 t-36 -139z" />
<glyph unicode="&#xbb;" horiz-adv-x="1071" d="M82 0l237 471l-233 471h221l273 -465l-273 -477h-225zM492 0l237 471l-233 471h221l272 -465l-272 -477h-225z" />
<glyph unicode="&#xbc;" horiz-adv-x="2062" d="M166 1094v153q156 64 223 119h164v-819h-186v641q-31 -28 -94 -57t-107 -37zM561 0l778 1366h162l-774 -1366h-166zM1284 182v162l363 475h221v-497h149v-140h-149v-182h-187v182h-397zM1458 322h230v327z" />
<glyph unicode="&#xbd;" horiz-adv-x="2062" d="M166 1094v153q156 64 223 119h164v-819h-186v641q-31 -28 -94 -57t-107 -37zM520 0l778 1366h162l-774 -1366h-166zM1307 0v147q253 190 351.5 291t98.5 170q0 43 -33.5 70t-87.5 27q-59 0 -84.5 -28.5t-25.5 -92.5h-195q-2 122 78 187t231 65q137 0 221.5 -62.5 t84.5 -165.5q0 -100 -94 -207.5t-314 -261.5h440v-139h-671z" />
<glyph unicode="&#xbe;" horiz-adv-x="2062" d="M70 778v4h196q4 -63 37.5 -91.5t102.5 -28.5q63 0 105 34t42 86q0 58 -46.5 89t-131.5 28l-58 -2v145h31q184 0 184 109q0 43 -33 70.5t-87 27.5q-121 0 -127 -104h-193q0 79 35 125q80 112 274 112q139 0 229.5 -64.5t90.5 -164.5q0 -60 -31.5 -100.5t-111.5 -81.5 q74 -17 118.5 -71t44.5 -126q0 -108 -100 -177t-256 -69q-101 0 -176 32t-109 89q-14 24 -23.5 64.5t-6.5 64.5zM602 0l778 1366h164l-774 -1366h-168zM1284 182v162l363 475h221v-497h151v-140h-151v-182h-187v182h-397zM1458 322h230v327z" />
<glyph unicode="&#xbf;" horiz-adv-x="886" d="M63 -86q0 134 109 260q41 50 164 156q67 60 91 106t24 115v43h202v-29q0 -125 -19 -177.5t-95 -133.5q-126 -136 -163.5 -197t-37.5 -131q0 -89 69 -142.5t183 -53.5q117 0 227 55v-201q-139 -37 -264 -37q-227 0 -358.5 98.5t-131.5 268.5zM442 717v225h220v-225h-220z " />
<glyph unicode="&#xc0;" horiz-adv-x="1398" d="M0 0l528 1366h355l516 -1366h-293l-113 299h-604l-106 -299h-283zM336 1757h295l176 -266h-209zM469 514h453l-230 649z" />
<glyph unicode="&#xc1;" horiz-adv-x="1398" d="M0 0l528 1366h355l516 -1366h-293l-113 299h-604l-106 -299h-283zM469 514h453l-230 649zM608 1491l176 266h295l-262 -266h-209z" />
<glyph unicode="&#xc2;" horiz-adv-x="1398" d="M0 0l528 1366h355l516 -1366h-293l-113 299h-604l-106 -299h-283zM360 1491l201 266h305l201 -266h-219l-135 139l-133 -139h-220zM469 514h453l-230 649z" />
<glyph unicode="&#xc3;" horiz-adv-x="1398" d="M0 0l528 1366h355l516 -1366h-293l-113 299h-604l-106 -299h-283zM399 1503q4 83 8.5 110.5t18.5 53.5q20 40 63 66t89 26q23 0 42 -5.5t74 -27.5l92 -36q51 -20 62 -23.5t26 -3.5q44 0 50 90h129q2 -16 2 -39q0 -100 -39 -153q-23 -29 -61.5 -48.5t-75.5 -19.5 q-38 0 -107 29l-94 37q-71 28 -92 28q-48 0 -51 -84h-136zM469 514h453l-230 649z" />
<glyph unicode="&#xc4;" horiz-adv-x="1398" d="M0 0l528 1366h355l516 -1366h-293l-113 299h-604l-106 -299h-283zM387 1516v206h252v-206h-252zM469 514h453l-230 649zM776 1516v206h252v-206h-252z" />
<glyph unicode="&#xc5;" horiz-adv-x="1398" d="M0 0l528 1366h355l516 -1366h-293l-113 299h-604l-106 -299h-283zM469 514h453l-230 649zM494 1632q0 82 64 139.5t153 57.5q91 0 154 -58t63 -141q0 -78 -64 -135t-153 -57t-153 57t-64 137zM608 1632q0 -38 30.5 -65t72.5 -27t72 27t30 65q0 39 -30 66.5t-72 27.5 q-41 0 -72 -28t-31 -66z" />
<glyph unicode="&#xc6;" horiz-adv-x="1972" d="M0 0l786 1366h1088v-207h-672l49 -350h588v-207h-555l55 -395h555v-207h-798l-49 311h-574l-170 -311h-303zM588 518h428l-78 639z" />
<glyph unicode="&#xc7;" horiz-adv-x="1368" d="M92 664q0 168 47 311t133 237q79 88 198.5 134.5t264.5 46.5q171 0 303 -61t201 -171q54 -87 59 -219h-292q-6 115 -76.5 181.5t-186.5 66.5q-177 0 -269.5 -134.5t-92.5 -389.5q0 -235 89 -362.5t255 -127.5q121 0 194.5 65.5t90.5 188.5h303q-19 -209 -176 -333 t-404 -124q-299 0 -470 184t-171 507zM467 -383l151 277h226l-117 -277h-260z" />
<glyph unicode="&#xc8;" horiz-adv-x="1148" d="M143 0v1366h901v-207h-634v-348h596v-207h-596v-397h661v-207h-928zM285 1757h295l176 -266h-209z" />
<glyph unicode="&#xc9;" horiz-adv-x="1148" d="M143 0v1366h901v-207h-634v-348h596v-207h-596v-397h661v-207h-928zM504 1491l176 266h295l-262 -266h-209z" />
<glyph unicode="&#xca;" horiz-adv-x="1148" d="M143 0v1366h901v-207h-634v-348h596v-207h-596v-397h661v-207h-928zM256 1491l201 266h305l201 -266h-220l-135 139l-133 -139h-219z" />
<glyph unicode="&#xcb;" horiz-adv-x="1148" d="M143 0v1366h901v-207h-634v-348h596v-207h-596v-397h661v-207h-928zM289 1516v206h252v-206h-252zM678 1516v206h252v-206h-252z" />
<glyph unicode="&#xcc;" horiz-adv-x="565" d="M-80 1757h295l176 -266h-209zM143 0v1366h279v-1366h-279z" />
<glyph unicode="&#xcd;" horiz-adv-x="565" d="M143 0v1366h279v-1366h-279zM190 1491l177 266h295l-263 -266h-209z" />
<glyph unicode="&#xce;" horiz-adv-x="565" d="M-29 1491l172 266h308l172 -266h-220l-106 139l-107 -139h-219zM143 0v1366h279v-1366h-279z" />
<glyph unicode="&#xcf;" horiz-adv-x="565" d="M4 1516v206h242v-206h-242zM143 0v1366h279v-1366h-279zM346 1516v206h242v-206h-242z" />
<glyph unicode="&#xd0;" horiz-adv-x="1445" d="M6 623v178h137v565h506q282 0 465 -129q238 -170 238 -555q0 -181 -58.5 -323t-165.5 -222q-179 -137 -534 -137h-451v623h-137zM422 207h153q254 0 371 115t117 364q0 473 -459 473h-182v-358h303v-178h-303v-416z" />
<glyph unicode="&#xd1;" horiz-adv-x="1462" d="M143 0v1366h398l372 -752q49 -99 142 -338q-15 193 -15 273v817h279v-1366h-397l-410 819q-106 235 -125 281l2 -72q1 -14 2 -31.5t1.5 -27t0.5 -13.5v-956h-250zM444 1503q4 83 8.5 110.5t18.5 53.5q20 40 63 66t89 26q16 0 29 -2.5t30.5 -8.5t56.5 -22l92 -36 q50 -20 62 -23.5t27 -3.5q43 0 49 90h129q2 -16 2 -39q0 -100 -39 -153q-23 -29 -62 -48.5t-75 -19.5q-38 0 -107 29l-94 37q-49 19 -63.5 23.5t-28.5 4.5q-25 0 -37.5 -20t-13.5 -64h-136z" />
<glyph unicode="&#xd2;" horiz-adv-x="1507" d="M92 694q0 326 179.5 512.5t492.5 186.5q306 0 477.5 -189.5t171.5 -529.5q0 -312 -158 -496q-87 -97 -218 -151t-285 -54q-312 0 -486 190.5t-174 530.5zM381 694q0 -246 96 -389q85 -129 283 -129q180 0 272 128t92 376q0 251 -92 380.5t-272 129.5 q-178 0 -278.5 -131.5t-100.5 -364.5zM401 1757h295l176 -266h-208z" />
<glyph unicode="&#xd3;" horiz-adv-x="1507" d="M92 694q0 326 179.5 512.5t492.5 186.5q306 0 477.5 -189.5t171.5 -529.5q0 -312 -158 -496q-87 -97 -218 -151t-285 -54q-312 0 -486 190.5t-174 530.5zM381 694q0 -246 96 -389q85 -129 283 -129q180 0 272 128t92 376q0 251 -92 380.5t-272 129.5 q-178 0 -278.5 -131.5t-100.5 -364.5zM662 1491l176 266h295l-263 -266h-208z" />
<glyph unicode="&#xd4;" horiz-adv-x="1507" d="M92 694q0 326 179.5 512.5t492.5 186.5q306 0 477.5 -189.5t171.5 -529.5q0 -312 -158 -496q-87 -97 -218 -151t-285 -54q-312 0 -486 190.5t-174 530.5zM381 694q0 -246 96 -389q85 -129 283 -129q180 0 272 128t92 376q0 251 -92 380.5t-272 129.5 q-178 0 -278.5 -131.5t-100.5 -364.5zM414 1491l200 266h306l200 -266h-219l-135 139l-133 -139h-219z" />
<glyph unicode="&#xd5;" horiz-adv-x="1507" d="M92 694q0 326 179.5 512.5t492.5 186.5q306 0 477.5 -189.5t171.5 -529.5q0 -312 -158 -496q-87 -97 -218 -151t-285 -54q-312 0 -486 190.5t-174 530.5zM381 694q0 -246 96 -389q85 -129 283 -129q180 0 272 128t92 376q0 251 -92 380.5t-272 129.5 q-178 0 -278.5 -131.5t-100.5 -364.5zM467 1503q4 83 8.5 110.5t18.5 53.5q20 40 62.5 66t88.5 26q23 0 43 -5.5t74 -27.5l92 -36q51 -20 62 -23.5t26 -3.5q43 0 49 90h129q2 -16 2 -39q0 -100 -39 -153q-23 -29 -62 -48.5t-75 -19.5q-37 0 -106 29l-95 37q-71 28 -92 28 q-48 0 -51 -84h-135z" />
<glyph unicode="&#xd6;" horiz-adv-x="1507" d="M92 694q0 326 179.5 512.5t492.5 186.5q306 0 477.5 -189.5t171.5 -529.5q0 -312 -158 -496q-87 -97 -218 -151t-285 -54q-312 0 -486 190.5t-174 530.5zM381 694q0 -246 96 -389q85 -129 283 -129q180 0 272 128t92 376q0 251 -92 380.5t-272 129.5 q-178 0 -278.5 -131.5t-100.5 -364.5zM446 1516v206h252v-206h-252zM836 1516v206h251v-206h-251z" />
<glyph unicode="&#xd7;" d="M147 1018l154 156l336 -338l338 338l145 -142l-336 -340l346 -338l-151 -155l-342 338l-340 -338l-145 141l335 342z" />
<glyph unicode="&#xd8;" horiz-adv-x="1507" d="M92 670q0 164 42 297t120 221q86 98 220 151.5t292 53.5q168 0 324 -76l114 178l123 -80l-117 -180q104 -107 153.5 -244t49.5 -317q0 -327 -176 -514t-483 -187q-172 0 -318 60l-123 -180l-118 84l116 165q-118 110 -168.5 240.5t-50.5 327.5zM381 666q0 -116 18.5 -194 t61.5 -148l502 798q-47 37 -93.5 52.5t-107.5 15.5q-135 0 -221 -70q-160 -123 -160 -454zM567 215q77 -39 185 -39q175 0 273.5 133t98.5 369q0 203 -63 323z" />
<glyph unicode="&#xd9;" horiz-adv-x="1439" d="M143 502v864h279v-864q0 -154 77.5 -240t215.5 -86q141 0 222 87t81 239v864h278v-864q0 -239 -159 -384t-422 -145q-141 0 -265 49t-198 134q-109 124 -109 346zM389 1757h295l176 -266h-209z" />
<glyph unicode="&#xda;" horiz-adv-x="1439" d="M143 502v864h279v-864q0 -154 77.5 -240t215.5 -86q141 0 222 87t81 239v864h278v-864q0 -239 -159 -384t-422 -145q-141 0 -265 49t-198 134q-109 124 -109 346zM635 1491l176 266h295l-262 -266h-209z" />
<glyph unicode="&#xdb;" horiz-adv-x="1439" d="M143 502v864h279v-864q0 -154 77.5 -240t215.5 -86q141 0 222 87t81 239v864h278v-864q0 -239 -159 -384t-422 -145q-141 0 -265 49t-198 134q-109 124 -109 346zM381 1491l201 266h305l200 -266h-219l-135 139l-133 -139h-219z" />
<glyph unicode="&#xdc;" horiz-adv-x="1439" d="M143 502v864h279v-864q0 -154 77.5 -240t215.5 -86q141 0 222 87t81 239v864h278v-864q0 -239 -159 -384t-422 -145q-141 0 -265 49t-198 134q-109 124 -109 346zM414 1516v206h252v-206h-252zM803 1516v206h252v-206h-252z" />
<glyph unicode="&#xdd;" horiz-adv-x="1298" d="M0 1366h328l338 -578l335 578h295l-510 -844v-522h-278v522zM578 1491l176 266h295l-263 -266h-208z" />
<glyph unicode="&#xde;" horiz-adv-x="1222" d="M143 0v1366h267v-203h266q136 0 225.5 -26.5t155.5 -85.5q125 -116 125 -295q0 -99 -38.5 -184t-109.5 -142q-121 -98 -352 -98h-272v-332h-267zM410 539h196q141 0 205 45q82 56 82 168q0 106 -63 155t-199 49h-221v-417z" />
<glyph unicode="&#xdf;" horiz-adv-x="1286" d="M125 0v958q0 118 23 189.5t79 124.5q124 121 355 121q115 0 210.5 -29.5t159.5 -98.5t64 -167q0 -67 -33.5 -119t-108.5 -102q-54 -35 -72 -58t-18 -57q0 -41 33.5 -73t130.5 -81q79 -40 122 -70t69 -63q61 -82 61 -186q0 -145 -110 -230.5t-295 -85.5q-334 0 -340 293 h231q3 -65 36.5 -99t94.5 -34t97 39t36 107q0 63 -29.5 101t-111.5 79q-164 82 -219 138t-55 142q0 65 38 122t123 118q41 29 55.5 51t14.5 55q0 65 -52 106.5t-134 41.5q-109 0 -153 -62.5t-44 -216.5v-954h-258z" />
<glyph unicode="&#xe0;" horiz-adv-x="1101" d="M84 262q0 78 36.5 146t102.5 112t165 60t337 22v37q0 100 -43 143t-141 43q-80 0 -119 -35t-45 -114h-250q5 97 41 151q89 142 373 142q223 0 336 -88q54 -43 77 -99t23 -143v-367q0 -116 4 -169t16 -103h-237q-19 74 -19 133q-73 -89 -145 -124.5t-178 -35.5 q-149 0 -241.5 80t-92.5 209zM182 1366h279l186 -301h-196zM344 283q0 -67 41.5 -104.5t116.5 -37.5q70 0 122.5 31t80.5 88q4 9 13 72.5t9 85.5q0 21 -2 39q-224 0 -291 -31q-90 -41 -90 -143z" />
<glyph unicode="&#xe1;" horiz-adv-x="1101" d="M84 262q0 78 36.5 146t102.5 112t165 60t337 22v37q0 100 -43 143t-141 43q-80 0 -119 -35t-45 -114h-250q5 97 41 151q89 142 373 142q223 0 336 -88q54 -43 77 -99t23 -143v-367q0 -116 4 -169t16 -103h-237q-19 74 -19 133q-73 -89 -145 -124.5t-178 -35.5 q-149 0 -241.5 80t-92.5 209zM344 283q0 -67 41.5 -104.5t116.5 -37.5q70 0 122.5 31t80.5 88q4 9 13 72.5t9 85.5q0 21 -2 39q-224 0 -291 -31q-90 -41 -90 -143zM461 1065l186 301h279l-269 -301h-196z" />
<glyph unicode="&#xe2;" horiz-adv-x="1101" d="M84 262q0 78 36.5 146t102.5 112t165 60t337 22v37q0 100 -43 143t-141 43q-80 0 -119 -35t-45 -114h-250q5 97 41 151q89 142 373 142q223 0 336 -88q54 -43 77 -99t23 -143v-367q0 -116 4 -169t16 -103h-237q-19 74 -19 133q-73 -89 -145 -124.5t-178 -35.5 q-149 0 -241.5 80t-92.5 209zM221 1065l205 301h303l205 -301h-191l-165 190l-168 -190h-189zM344 283q0 -67 41.5 -104.5t116.5 -37.5q70 0 122.5 31t80.5 88q4 9 13 72.5t9 85.5q0 21 -2 39q-224 0 -291 -31q-90 -41 -90 -143z" />
<glyph unicode="&#xe3;" horiz-adv-x="1101" d="M84 262q0 78 36.5 146t102.5 112t165 60t337 22v37q0 100 -43 143t-141 43q-80 0 -119 -35t-45 -114h-250q5 97 41 151q89 142 373 142q223 0 336 -88q54 -43 77 -99t23 -143v-367q0 -116 4 -169t16 -103h-237q-19 74 -19 133q-73 -89 -145 -124.5t-178 -35.5 q-149 0 -241.5 80t-92.5 209zM238 1094q3 104 28 159q22 44 60 69.5t84 25.5q25 0 44 -5.5t78 -27.5l93 -35q12 -5 25.5 -10t19.5 -7.5t13.5 -5t10 -3.5t7 -2t7 -1h7.5q23 0 32.5 18.5t14.5 71.5h129q-2 -107 -19 -155q-39 -99 -139 -99q-44 0 -123 27l-94 35q-13 5 -29 11 t-21.5 8t-14 5t-12 3.5t-8 1t-9.5 0.5q-28 0 -40.5 -20t-14.5 -64h-129zM344 283q0 -67 41.5 -104.5t116.5 -37.5q70 0 122.5 31t80.5 88q4 9 13 72.5t9 85.5q0 21 -2 39q-224 0 -291 -31q-90 -41 -90 -143z" />
<glyph unicode="&#xe4;" horiz-adv-x="1101" d="M84 262q0 78 36.5 146t102.5 112t165 60t337 22v37q0 100 -43 143t-141 43q-80 0 -119 -35t-45 -114h-250q5 97 41 151q89 142 373 142q223 0 336 -88q54 -43 77 -99t23 -143v-367q0 -116 4 -169t16 -103h-237q-19 74 -19 133q-73 -89 -145 -124.5t-178 -35.5 q-149 0 -241.5 80t-92.5 209zM264 1112v205h225v-205h-225zM344 283q0 -67 41.5 -104.5t116.5 -37.5q70 0 122.5 31t80.5 88q4 9 13 72.5t9 85.5q0 21 -2 39q-224 0 -291 -31q-90 -41 -90 -143zM625 1112v205h225v-205h-225z" />
<glyph unicode="&#xe5;" horiz-adv-x="1101" d="M84 262q0 78 36.5 146t102.5 112t165 60t337 22v37q0 100 -43 143t-141 43q-80 0 -119 -35t-45 -114h-250q5 97 41 151q89 142 373 142q223 0 336 -88q54 -43 77 -99t23 -143v-367q0 -116 4 -169t16 -103h-237q-19 74 -19 133q-73 -89 -145 -124.5t-178 -35.5 q-149 0 -241.5 80t-92.5 209zM344 283q0 -67 41.5 -104.5t116.5 -37.5q70 0 122.5 31t80.5 88q4 9 13 72.5t9 85.5q0 21 -2 39q-224 0 -291 -31q-90 -41 -90 -143zM352 1243q0 82 62.5 139.5t150.5 57.5t149.5 -58t61.5 -141q0 -78 -62.5 -135t-148.5 -57q-88 0 -150.5 57 t-62.5 137zM465 1243q0 -38 29.5 -65t70.5 -27q40 0 69.5 27t29.5 65t-29.5 66t-69.5 28q-41 0 -70.5 -28t-29.5 -66z" />
<glyph unicode="&#xe6;" horiz-adv-x="1722" d="M84 264q0 114 74 192t209 109q110 24 362 27q-3 217 -182 217q-71 0 -113.5 -34t-46.5 -95h-250q3 49 11 79t28 60q46 71 135 110.5t207 39.5q115 0 199 -35.5t149 -112.5q75 78 155 113t185 35q204 0 317 -127t113 -357v-65h-651q-4 -16 -4 -43q0 -90 55 -170 q50 -74 156 -74q78 0 123 45t51 131h250q-11 -155 -119 -245.5t-285 -90.5q-250 0 -368 183q-28 -41 -49.5 -63t-55.5 -44q-126 -76 -293 -76q-164 0 -263 79.5t-99 211.5zM348 274q0 -63 44 -102t116 -39q109 0 165 78.5t56 232.5l-115 2q-266 6 -266 -172zM983 578h383v30 q0 95 -47.5 148t-132.5 53q-95 0 -149 -61t-54 -170z" />
<glyph unicode="&#xe7;" horiz-adv-x="1048" d="M84 467q0 234 126.5 368t356.5 134q120 0 212.5 -37.5t146.5 -108.5q32 -41 46 -85t17 -113h-256q-7 97 -49 140.5t-127 43.5q-109 0 -159 -77t-50 -243q0 -356 215 -356q84 0 128 54t46 159h252v-20q0 -155 -121 -254t-311 -99q-103 0 -193.5 33.5t-152.5 93.5 q-60 59 -93.5 155.5t-33.5 211.5zM315 -385l148 270h199l-115 -270h-232z" />
<glyph unicode="&#xe8;" horiz-adv-x="1118" d="M84 461q0 232 129.5 370t347.5 138q230 0 350.5 -128t120.5 -372v-49h-686q0 -287 217 -287q55 0 103 25t71 65q17 33 27 86h248q-3 -81 -43 -149q-117 -187 -404 -187q-224 0 -342 115q-139 133 -139 373zM205 1366h278l187 -301h-197zM354 578h406q0 112 -49.5 171.5 t-143.5 59.5q-92 0 -146.5 -58.5t-66.5 -172.5z" />
<glyph unicode="&#xe9;" horiz-adv-x="1118" d="M84 461q0 232 129.5 370t347.5 138q230 0 350.5 -128t120.5 -372v-49h-686q0 -287 217 -287q55 0 103 25t71 65q17 33 27 86h248q-3 -81 -43 -149q-117 -187 -404 -187q-224 0 -342 115q-139 133 -139 373zM354 578h406q0 112 -49.5 171.5t-143.5 59.5 q-92 0 -146.5 -58.5t-66.5 -172.5zM481 1065l187 301h278l-268 -301h-197z" />
<glyph unicode="&#xea;" horiz-adv-x="1118" d="M84 461q0 232 129.5 370t347.5 138q230 0 350.5 -128t120.5 -372v-49h-686q0 -287 217 -287q55 0 103 25t71 65q17 33 27 86h248q-3 -81 -43 -149q-117 -187 -404 -187q-224 0 -342 115q-139 133 -139 373zM215 1065l205 301h303l205 -301h-191l-166 190l-168 -190h-188z M354 578h406q0 112 -49.5 171.5t-143.5 59.5q-92 0 -146.5 -58.5t-66.5 -172.5z" />
<glyph unicode="&#xeb;" horiz-adv-x="1118" d="M84 461q0 232 129.5 370t347.5 138q230 0 350.5 -128t120.5 -372v-49h-686q0 -287 217 -287q55 0 103 25t71 65q17 33 27 86h248q-3 -81 -43 -149q-117 -187 -404 -187q-224 0 -342 115q-139 133 -139 373zM279 1112v205h225v-205h-225zM354 578h406q0 112 -49.5 171.5 t-143.5 59.5q-92 0 -146.5 -58.5t-66.5 -172.5zM639 1112v205h225v-205h-225z" />
<glyph unicode="&#xec;" horiz-adv-x="509" d="M-96 1366h278l174 -301h-198zM125 0v942h258v-942h-258z" />
<glyph unicode="&#xed;" horiz-adv-x="509" d="M125 0v942h258v-942h-258zM174 1065l172 301h279l-254 -301h-197z" />
<glyph unicode="&#xee;" horiz-adv-x="509" d="M-53 1065l170 301h291l170 -301h-191l-125 190l-127 -190h-188zM127 0v942h258v-942h-258z" />
<glyph unicode="&#xef;" horiz-adv-x="509" d="M-6 1112v205h217v-205h-217zM127 0v942h258v-942h-258zM313 1112v205h217v-205h-217z" />
<glyph unicode="&#xf0;" horiz-adv-x="1157" d="M84 477q0 138 61.5 251.5t169 178t238.5 64.5q45 0 129 -17q-51 82 -83.5 121t-78.5 72l-207 -133l-65 100l153 96q-92 45 -188 56l59 120q68 -6 154.5 -26.5t138.5 -42.5l209 133l64 -98l-152 -97q138 -90 252 -278q63 -103 99 -238.5t36 -271.5q0 -227 -136.5 -360.5 t-369.5 -133.5q-221 0 -352 137t-131 367zM348 485q0 -163 62 -251.5t176 -88.5q106 0 164.5 81t58.5 229q0 169 -58.5 256.5t-170.5 87.5t-172 -81.5t-60 -232.5z" />
<glyph unicode="&#xf1;" horiz-adv-x="1177" d="M117 942h262q3 -61 6 -149q43 65 80 94q101 82 258 82t243.5 -85t86.5 -239v-645h-258v563q0 68 -6 101t-25 59q-25 34 -67 54t-91 20q-104 0 -162.5 -66.5t-58.5 -185.5v-545h-258v764q0 114 -10 178zM303 1094q2 102 29 159q22 44 59.5 69.5t83.5 25.5q25 0 45 -5.5 t78 -27.5l92 -35q12 -5 25.5 -10t19.5 -7.5t13.5 -5t10 -3.5t7 -2t7 -1h7.5q23 0 32.5 18.5t14.5 71.5h129q-2 -110 -18 -155q-39 -99 -139 -99q-44 0 -123 27l-94 35q-10 4 -22.5 8.5t-18.5 6.5t-13.5 5t-11 4t-8.5 2.5t-7.5 1.5t-6 0.5t-7.5 0.5q-28 0 -40.5 -20 t-14.5 -64h-129z" />
<glyph unicode="&#xf2;" horiz-adv-x="1157" d="M84 473q0 224 138.5 360t367.5 136q218 0 349.5 -140.5t131.5 -373.5q0 -98 -34 -189t-93 -153q-65 -66 -164.5 -103t-216.5 -37q-218 0 -348.5 135.5t-130.5 364.5zM231 1366h279l186 -301h-196zM348 483q0 -161 61.5 -249.5t174.5 -88.5q107 0 165 80.5t58 229.5 q0 342 -229 342q-110 0 -170 -81.5t-60 -232.5z" />
<glyph unicode="&#xf3;" horiz-adv-x="1157" d="M84 473q0 224 138.5 360t367.5 136q218 0 349.5 -140.5t131.5 -373.5q0 -98 -34 -189t-93 -153q-65 -66 -164.5 -103t-216.5 -37q-218 0 -348.5 135.5t-130.5 364.5zM348 483q0 -161 61.5 -249.5t174.5 -88.5q107 0 165 80.5t58 229.5q0 342 -229 342q-110 0 -170 -81.5 t-60 -232.5zM508 1065l186 301h279l-268 -301h-197z" />
<glyph unicode="&#xf4;" horiz-adv-x="1157" d="M84 473q0 224 138.5 360t367.5 136q218 0 349.5 -140.5t131.5 -373.5q0 -98 -34 -189t-93 -153q-65 -66 -164.5 -103t-216.5 -37q-218 0 -348.5 135.5t-130.5 364.5zM242 1065l204 301h304l204 -301h-190l-166 190l-168 -190h-188zM348 483q0 -161 61.5 -249.5 t174.5 -88.5q107 0 165 80.5t58 229.5q0 342 -229 342q-110 0 -170 -81.5t-60 -232.5z" />
<glyph unicode="&#xf5;" horiz-adv-x="1157" d="M84 473q0 224 138.5 360t367.5 136q218 0 349.5 -140.5t131.5 -373.5q0 -98 -34 -189t-93 -153q-65 -66 -164.5 -103t-216.5 -37q-218 0 -348.5 135.5t-130.5 364.5zM305 1094q2 102 29 159q22 44 59.5 69.5t83.5 25.5q25 0 45 -5.5t78 -27.5l92 -35q12 -5 25.5 -10 t19.5 -7.5t13.5 -5t10 -3.5t7 -2t7 -1h7.5q23 0 32.5 18.5t14.5 71.5h129q-2 -110 -18 -155q-39 -99 -139 -99q-44 0 -123 27l-94 35q-10 4 -22.5 8.5t-18.5 6.5t-13.5 5t-11 4t-8.5 2.5t-7.5 1.5t-6 0.5t-7.5 0.5q-28 0 -40.5 -20t-14.5 -64h-129zM348 483 q0 -161 61.5 -249.5t174.5 -88.5q107 0 165 80.5t58 229.5q0 342 -229 342q-110 0 -170 -81.5t-60 -232.5z" />
<glyph unicode="&#xf6;" horiz-adv-x="1157" d="M84 473q0 224 138.5 360t367.5 136q218 0 349.5 -140.5t131.5 -373.5q0 -98 -34 -189t-93 -153q-65 -66 -164.5 -103t-216.5 -37q-218 0 -348.5 135.5t-130.5 364.5zM305 1112v205h225v-205h-225zM348 483q0 -161 61.5 -249.5t174.5 -88.5q107 0 165 80.5t58 229.5 q0 342 -229 342q-110 0 -170 -81.5t-60 -232.5zM666 1112v205h225v-205h-225z" />
<glyph unicode="&#xf7;" d="M113 598v205h1050v-205h-1050zM526 231v252h224v-252h-224zM526 922v252h224v-252h-224z" />
<glyph unicode="&#xf8;" horiz-adv-x="1157" d="M84 473q0 223 139 359.5t365 136.5q126 0 227 -49l96 137l101 -64l-94 -139q153 -153 153 -393q0 -219 -133.5 -353.5t-351.5 -134.5q-158 0 -254 47l-99 -133l-92 70l90 133q-147 144 -147 383zM348 494q0 -85 29 -201l325 465q-52 39 -120 39q-110 0 -172 -80t-62 -223 zM451 188q60 -43 131 -43q225 0 225 328q0 117 -29 180z" />
<glyph unicode="&#xf9;" horiz-adv-x="1161" d="M125 373v569h258v-577q0 -99 35 -148q53 -72 151 -72q59 0 107.5 29t73.5 78q26 51 26 194v496h258v-758q0 -104 21 -184h-258q-21 90 -21 158q-78 -185 -307 -185q-167 0 -255.5 103t-88.5 297zM233 1366h279l186 -301h-196z" />
<glyph unicode="&#xfa;" horiz-adv-x="1161" d="M125 373v569h258v-577q0 -99 35 -148q53 -72 151 -72q59 0 107.5 29t73.5 78q26 51 26 194v496h258v-758q0 -104 21 -184h-258q-21 90 -21 158q-78 -185 -307 -185q-167 0 -255.5 103t-88.5 297zM496 1065l186 301h279l-269 -301h-196z" />
<glyph unicode="&#xfb;" horiz-adv-x="1161" d="M125 373v569h258v-577q0 -99 35 -148q53 -72 151 -72q59 0 107.5 29t73.5 78q26 51 26 194v496h258v-758q0 -104 21 -184h-258q-21 90 -21 158q-78 -185 -307 -185q-167 0 -255.5 103t-88.5 297zM238 1065l204 301h303l205 -301h-190l-166 190l-168 -190h-188z" />
<glyph unicode="&#xfc;" horiz-adv-x="1161" d="M125 373v569h258v-577q0 -99 35 -148q53 -72 151 -72q59 0 107.5 29t73.5 78q26 51 26 194v496h258v-758q0 -104 21 -184h-258q-21 90 -21 158q-78 -185 -307 -185q-167 0 -255.5 103t-88.5 297zM301 1112v205h225v-205h-225zM662 1112v205h225v-205h-225z" />
<glyph unicode="&#xfd;" horiz-adv-x="1050" d="M10 942h287l256 -637l233 637h252q-202 -488 -282.5 -689t-235.5 -607h-250l156 354zM455 1065l186 301h279l-269 -301h-196z" />
<glyph unicode="&#xfe;" horiz-adv-x="1175" d="M125 -354v1720h266v-551q57 82 126 118t167 36q186 0 296 -130t110 -350q0 -230 -116.5 -373t-303.5 -143q-84 0 -150 29.5t-129 95.5v-452h-266zM379 467q0 -155 56 -238.5t159 -83.5q106 0 168.5 88.5t62.5 239.5q0 155 -56 239.5t-157 84.5q-112 0 -172.5 -85.5 t-60.5 -244.5z" />
<glyph unicode="&#xff;" horiz-adv-x="1050" d="M10 942h287l256 -637l233 637h252q-202 -488 -282.5 -689t-235.5 -607h-250l156 354zM260 1112v205h225v-205h-225zM621 1112v205h225v-205h-225z" />
<glyph unicode="&#x152;" horiz-adv-x="1945" d="M92 670q0 207 76.5 364.5t216.5 239.5q90 52 191.5 72t275.5 20h995v-207h-614v-354h592v-207h-592v-391h633v-207h-1016q-305 0 -479 98q-133 73 -206 222.5t-73 349.5zM381 666q0 -236 113.5 -351.5t345.5 -115.5q29 0 127 8v954q-88 8 -136 8q-227 0 -338.5 -124 t-111.5 -379z" />
<glyph unicode="&#x153;" horiz-adv-x="1804" d="M84 461q0 229 132 368.5t349 139.5q232 0 369 -174q118 176 350 176q149 0 256 -73.5t148 -205.5q30 -102 30 -272h-647v-27q0 -118 57 -189t152 -71q78 0 125 46t53 130h246q-19 -117 -66 -182q-53 -72 -142.5 -113t-195.5 -41q-236 0 -366 174q-140 -174 -381 -174 q-211 0 -340 135t-129 353zM348 481q0 -163 61.5 -255.5t168.5 -92.5q109 0 174 93.5t65 248.5q0 161 -60 247.5t-171 86.5q-114 0 -176 -86t-62 -242zM1069 578h389v36q0 89 -51.5 143t-136.5 54q-94 0 -145.5 -59t-55.5 -174z" />
<glyph unicode="&#x178;" horiz-adv-x="1298" d="M0 1366h328l338 -578l335 578h295l-510 -844v-522h-278v522zM348 1516v206h252v-206h-252zM737 1516v206h252v-206h-252z" />
<glyph unicode="&#x2c6;" horiz-adv-x="1024" d="M156 1065l204 301h304l204 -301h-190l-166 190l-168 -190h-188z" />
<glyph unicode="&#x2dc;" horiz-adv-x="1024" d="M184 1094q2 102 29 159q22 44 59.5 69.5t83.5 25.5q25 0 45 -5.5t78 -27.5l92 -35q11 -4 23 -9t18 -7t13 -5t10.5 -4t7.5 -2t6.5 -1.5t5.5 -0.5h7q23 0 32.5 18.5t14.5 71.5h129q-2 -107 -19 -155q-39 -99 -139 -99q-44 0 -123 27l-94 35q-13 5 -29 11t-21.5 8t-14 5 t-12 3.5t-8 1t-9.5 0.5q-28 0 -41.5 -20t-14.5 -64h-129z" />
<glyph unicode="&#x2000;" horiz-adv-x="914" />
<glyph unicode="&#x2001;" horiz-adv-x="1829" />
<glyph unicode="&#x2002;" horiz-adv-x="914" />
<glyph unicode="&#x2003;" horiz-adv-x="1829" />
<glyph unicode="&#x2004;" horiz-adv-x="609" />
<glyph unicode="&#x2005;" horiz-adv-x="457" />
<glyph unicode="&#x2006;" horiz-adv-x="304" />
<glyph unicode="&#x2007;" horiz-adv-x="304" />
<glyph unicode="&#x2008;" horiz-adv-x="228" />
<glyph unicode="&#x2009;" horiz-adv-x="365" />
<glyph unicode="&#x200a;" horiz-adv-x="101" />
<glyph unicode="&#x2010;" horiz-adv-x="512" d="M0 408v165h512v-165h-512z" />
<glyph unicode="&#x2011;" horiz-adv-x="512" d="M0 408v165h512v-165h-512z" />
<glyph unicode="&#x2012;" horiz-adv-x="512" d="M0 408v165h512v-165h-512z" />
<glyph unicode="&#x2013;" horiz-adv-x="1157" d="M115 408v165h927v-165h-927z" />
<glyph unicode="&#x2014;" horiz-adv-x="1533" d="M0 408v165h1534v-165h-1534z" />
<glyph unicode="&#x2018;" horiz-adv-x="614" d="M109 942l198 424h185l-127 -424h-256z" />
<glyph unicode="&#x2019;" horiz-adv-x="614" d="M123 942l127 424h256l-199 -424h-184z" />
<glyph unicode="&#x201a;" horiz-adv-x="614" d="M123 -178l127 424h256l-199 -424h-184z" />
<glyph unicode="&#x201c;" horiz-adv-x="997" d="M109 942l198 424h185l-127 -424h-256zM492 942l196 424h184l-124 -424h-256z" />
<glyph unicode="&#x201d;" horiz-adv-x="997" d="M123 942l127 424h256l-199 -424h-184zM506 942l125 424h256l-197 -424h-184z" />
<glyph unicode="&#x201e;" horiz-adv-x="997" d="M123 -178l127 424h256l-199 -424h-184zM506 -178l125 424h256l-197 -424h-184z" />
<glyph unicode="&#x2022;" horiz-adv-x="1366" d="M401 692q0 120 83.5 202.5t205.5 82.5q114 0 196.5 -83.5t82.5 -199.5q0 -118 -83 -201t-200 -83t-201 82.5t-84 199.5z" />
<glyph unicode="&#x2026;" horiz-adv-x="1490" d="M137 0v252h223v-252h-223zM635 0v252h223v-252h-223zM1133 0v252h223v-252h-223z" />
<glyph unicode="&#x202f;" horiz-adv-x="365" />
<glyph unicode="&#x2039;" horiz-adv-x="661" d="M82 477l272 465h221l-233 -471l238 -471h-226z" />
<glyph unicode="&#x203a;" horiz-adv-x="661" d="M82 0l237 471l-233 471h221l273 -465l-273 -477h-225z" />
<glyph unicode="&#x205f;" horiz-adv-x="457" />
<glyph unicode="&#x20ac;" horiz-adv-x="1589" d="M92 465l72 172h115v25q0 53 2 69h-189l72 172h141q121 490 617 490q170 0 302 -61t201 -171q55 -88 60 -219h-293q-8 116 -77.5 182t-184.5 66q-129 0 -217.5 -75t-120.5 -212h477l-72 -170h-430v-65q0 -15 -2 -31h391l-71 -172h-299q31 -138 115 -213.5t208 -75.5 q122 0 196 65.5t91 188.5h303q-19 -209 -176 -333t-403 -124q-250 0 -413 128.5t-210 363.5h-205z" />
<glyph unicode="&#x2122;" horiz-adv-x="1832" d="M18 1235v131h705v-131h-262v-647h-180v647h-263zM791 588v778h280l148 -420q6 -16 20 -56t21 -61q20 52 43 117l153 420h275v-778h-181v540l2 70l-219 -610h-170l-213 602q0 -31 2 -39v-563h-161z" />
</font>
</defs>
</svg>
